<svg width="109" height="32" viewBox="0 0 109 32" fill="none" xmlns="http://www.w3.org/2000/svg">
<path d="M102.213 17.5947C102.213 18.1842 102.114 18.6934 101.953 19.1132H94.4857C94.8967 20.2745 95.9239 21.0605 97.2013 21.0605C97.7908 21.0605 98.6662 20.8908 99.6042 20.0511L101.453 21.8913C100.113 23.3294 98.4072 23.7403 97.1388 23.7403C94.048 23.7403 91.6362 21.3106 91.6362 18.0234C91.6362 14.7094 94.0838 12.3065 97.1298 12.3065C100.346 12.3065 102.213 14.9863 102.213 17.5947ZM97.1209 14.9863C95.8614 14.9863 94.8163 15.7635 94.4411 16.9694H99.488C99.2022 15.7992 98.3983 14.9863 97.1209 14.9863Z" fill="white"/>
<path d="M89.5185 10.9666C88.4913 10.9666 88.2947 11.8866 88.2947 12.235V12.6638H90.7066V15.3436H88.2947V23.383H85.5435V15.3436H84.1143V12.6638H85.5435V12.235C85.5435 9.89465 86.5171 8.3761 88.6878 8.3761C89.3845 8.3761 89.983 8.51902 90.7066 8.73341V11.2613C90.3046 11.0916 89.8937 10.9666 89.5185 10.9666Z" fill="white"/>
<path d="M81.0509 11.3685C80.1933 11.3685 79.4966 10.6717 79.4966 9.81417C79.4966 8.95664 80.1933 8.25989 81.0509 8.25989C81.9084 8.25989 82.6051 8.95664 82.6051 9.81417C82.6051 10.6717 81.9084 11.3685 81.0509 11.3685ZM79.6752 23.3829V12.6637H82.4265V23.3829H79.6752Z" fill="white"/>
<path d="M74.4224 23.3831V8.64417H77.1736V23.3831H74.4224Z" fill="white"/>
<path d="M69.0813 14.102C70.1264 12.7531 71.6003 12.2261 72.8955 12.2172L72.4489 15.2364C72.3417 15.2275 72.2166 15.2275 72.0916 15.2275C70.8857 15.2275 69.117 15.692 69.117 18.9256V23.383H66.3657V12.6638H68.9383L69.0813 14.102Z" fill="white"/>
<path d="M58.9158 23.7403C55.7447 23.7403 53.1899 21.1856 53.1899 18.0234C53.1899 14.8702 55.7447 12.3065 58.9158 12.3065C62.069 12.3065 64.6237 14.8702 64.6237 18.0234C64.6237 21.1856 62.069 23.7403 58.9158 23.7403ZM58.9158 20.9891C60.5505 20.9891 61.8725 19.667 61.8725 18.0234C61.8725 16.3887 60.5505 15.0578 58.9158 15.0578C57.2632 15.0578 55.9412 16.3887 55.9412 18.0234C55.9412 19.667 57.2632 20.9891 58.9158 20.9891Z" fill="white"/>
<path d="M53.3236 23.3831H49.9828L46.0882 18.6487V23.3831H43.3369V8.64417H46.0882V17.3982L49.6523 12.6639H52.8145L48.8126 17.9073L53.3236 23.3831Z" fill="white"/>
<path d="M36.4501 23.6689C34.0919 23.6689 32.35 22.6863 31.3853 20.8998L33.6988 19.2741C34.333 20.2924 35.2531 20.7569 36.4947 20.7569C37.8525 20.7569 38.7636 20.2031 38.7636 19.4349C38.7636 18.3808 37.0396 17.5501 35.53 16.7997C33.9132 15.9958 32.1356 15.1114 32.1356 12.8158C32.1356 10.3235 34.2437 8.67993 36.8878 8.67993C38.853 8.67993 40.4787 9.4928 41.1308 11.2347L38.9959 12.7264C38.5671 11.8689 37.7364 11.5205 36.9324 11.5205C35.8516 11.5205 35.0476 12.1458 35.0476 12.8872C35.0476 13.7448 36.1374 14.0395 37.79 14.8167C40.175 15.9422 41.6757 17.157 41.6757 19.3723C41.6757 21.9985 39.5318 23.6689 36.4501 23.6689Z" fill="white"/>
<path d="M14.6123 21.3069L6.3999 16.5452V21.5607C6.4003 22.1782 6.56275 22.7848 6.87092 23.3193C7.17909 23.8539 7.62212 24.2976 8.15544 24.6059L15.3115 28.7556V22.5161C15.3097 22.2709 15.2443 22.0305 15.1216 21.8185C14.999 21.6064 14.8235 21.4302 14.6123 21.3069Z" fill="white"/>
<path d="M16.5314 11.5292C16.1604 11.3146 15.8523 11.0057 15.6381 10.6335C15.4239 10.2614 15.3113 9.83922 15.3115 9.4095V3.21472L8.15547 7.36448C7.62215 7.67273 7.17912 8.11645 6.87095 8.65101C6.56278 9.18554 6.40032 9.79211 6.39993 10.4096V14.0071C6.39787 14.4371 6.50974 14.8601 6.7241 15.2325C6.93846 15.605 7.2476 15.9136 7.61988 16.1267L15.1627 20.5005C15.5127 20.7026 15.8031 20.9943 16.0043 21.3455C16.2056 21.697 16.3104 22.0954 16.3084 22.5007V28.7999L23.4644 24.6502C23.9977 24.342 24.4407 23.8982 24.7489 23.3637C25.057 22.8292 25.2195 22.2226 25.22 21.6051V18.0076C25.222 17.5776 25.1101 17.1546 24.8958 16.7821C24.6814 16.4097 24.3723 16.1011 23.9999 15.888L16.5314 11.5292Z" fill="white"/>
<path d="M17.0078 10.6486L25.2202 15.4104V10.3949C25.2198 9.77731 25.0573 9.17079 24.7491 8.63623C24.441 8.10166 23.9979 7.65798 23.4646 7.3497L16.3086 3.19995V9.4246C16.3083 9.67215 16.3728 9.91539 16.4955 10.1302C16.6182 10.3449 16.7948 10.5237 17.0078 10.6486Z" fill="white"/>
</svg>
